#N canvas 544 87 726 424 12;
#X floatatom 84 21 5 0 0 0 - - - 0;
#X obj 84 44 + 200;
#X obj 18 97 * 1.5;
#X obj 98 98 * 2;
#X obj 164 100 * 1.616;
#X obj 3 149 osc~ 660;
#X obj 92 150 osc~ 880;
#X obj 182 152 osc~ 711;
#X obj 260 152 osc~ 440;
#X obj 169 197 +~;
#X obj 169 227 +~;
#X obj 170 253 +~;
#X obj 166 279 dac~;
#X obj 448 8 receive from GUI;
#X obj 470 37 route list;
#X obj 455 69 route /myButton /freq /gain /metro /tempo;
#X obj 455 93 route 0 1;
#X obj 455 126 bng 19 250 50 0 empty empty empty 0 -10 0 12 #fcfcfc #000000 #000000;
#X msg 423 161 1 100;
#X obj 393 196 line~;
#X connect 0 0 1 0;
#X connect 1 0 2 0;
#X connect 1 0 3 0;
#X connect 1 0 4 0;
#X connect 2 0 5 0;
#X connect 3 0 6 0;
#X connect 4 0 7 0;
#X connect 5 0 9 0;
#X connect 6 0 9 0;
#X connect 7 0 9 0;
#X connect 8 0 9 0;
#X connect 9 0 10 0;
#X connect 10 0 11 0;
#X connect 11 0 12 1;
#X connect 11 0 12 0;
#X connect 13 0 14 0;
#X connect 14 0 15 0;
#X connect 15 0 16 0;
#X connect 16 1 17 0;
#X connect 17 0 18 0;
#X connect 18 0 19 0;
#X connect 19 0 11 1;
